<?xml version="1.0" encoding="UTF-8"?>
<svg version="1.1" xmlns="http://www.w3.org/2000/svg" width="602" height="567">
<path d="M0 0 C198.66 0 397.32 0 602 0 C602 187.11 602 374.22 602 567 C403.34 567 204.68 567 0 567 C0 379.89 0 192.78 0 0 Z " fill="#0C0C0A" transform="translate(0,0)"/>
<path d="M0 0 C38.856 0 38.856 0 48 9 C56.28483766 17.79649034 57.49430219 27.29057159 57.421875 38.95361328 C57.11228139 49.24963753 53.98884633 57.35934417 47 65 C33.05503313 77.5844823 20.50295769 73 0 73 C0 48.91 0 24.82 0 0 Z " fill="#F5F5F5" transform="translate(400,205)"/>
<path d="M0 0 C38.75 0 38.75 0 50 9 C53.84191993 13.94275659 54.62877121 19.17954224 54.390625 25.3203125 C53.50569126 31.39095794 50.23831551 36.62923713 46 41 C43.875 41.62890625 43.875 41.62890625 42 42 C43.79108432 45.75027841 45.58296851 49.5001741 47.375 53.25 C47.88289063 54.31347656 48.39078125 55.37695312 48.9140625 56.47265625 C49.64882813 58.00986328 49.64882813 58.00986328 50.3984375 59.578125 C50.84880371 60.52075195 51.29916992 61.46337891 51.76318359 62.43457031 C52.52119198 64.00684668 53.31374721 65.56371716 54.16259766 67.08886719 C55 69 55 69 55 73 C50.05 73 45.1 73 40 73 C39.13629549 71.27259098 38.27292906 69.54501222 37.41113281 67.81665039 C36.67557036 66.34928502 35.93397085 64.88493118 35.18652344 63.42358398 C33.55865098 60.22496363 32.04141063 57.11020785 30.77734375 53.74609375 C29.72614799 50.69551355 29.72614799 50.69551355 27 47 C23.04 46.67 19.08 46.34 15 46 C15 55.24 15 64.48 15 74 C10.05 74 5.1 74 0 74 C0 49.58 0 25.16 0 0 Z " fill="#F6F6F6" transform="translate(209,295)"/>
<path d="M0 0 C41.0956341 0 41.0956341 0 49.40625 8.19140625 C53.87710947 13.26495511 54.49068372 17.67312095 54.28515625 24.25 C53.57397077 31.10855588 51.3095225 35.48690588 46 40 C45.01 40.66 44.02 41.32 43 42 C43.28095412 45.74605498 44.06956614 48.35771877 46.125 51.4375 C48.76587655 55.41043159 50.80149952 59.56081551 52.8125 63.875 C53.28357178 64.87551392 53.28357178 64.87551392 53.76416016 65.89624023 C56 70.74304003 56 70.74304003 56 73 C50.72 73 45.44 73 40 73 C28 49.26213592 28 49.26213592 28 46 C23.71 46 19.42 46 15 46 C15 54.91 15 63.82 15 73 C10.05 73 5.1 73 0 73 C0 48.91 0 24.82 0 0 Z " fill="#F7F7F7" transform="translate(200,205)"/>
<path d="M0 0 C5.61 0 11.22 0 17 0 C17.68835938 2.09988281 17.68835938 2.09988281 18.390625 4.2421875 C19.01025228 6.11984592 19.63005326 7.99744703 20.25 9.875 C20.55035156 10.7928125 20.85070312 11.710625 21.16015625 12.65625 C22.94374632 18.04496894 24.89294946 23.31913776 27.03564453 28.57470703 C28.59755856 32.50282195 29.94761487 36.5001003 31.3125 40.5 C33.9535561 48.1767279 36.78411617 55.75264787 39.86645508 63.26367188 C41.27955716 66.78036449 42 69.1533638 42 73 C37.05 73 32.1 73 27 73 C22 61.375 22 61.375 22 58 C13.09 58 4.18 58 -5 58 C-5.33 59.65 -5.66 61.3 -6 63 C-6.47240093 64.59178573 -6.97176552 66.17586126 -7.5 67.75 C-7.88671875 68.91789062 -7.88671875 68.91789062 -8.28125 70.109375 C-9 72 -9 72 -10 73 C-12.53049402 73.07313567 -15.03304837 73.09247527 -17.5625 73.0625 C-18.27341797 73.05798828 -18.98433594 73.05347656 -19.71679688 73.04882812 C-21.47790013 73.03700864 -23.23896036 73.01907263 -25 73 C-24.37577977 68.10519992 -22.91795507 63.75459422 -21.125 59.1875 C-20.57691169 57.76088221 -20.03002577 56.33380187 -19.484375 54.90625 C-19.22462891 54.22820312 -18.96488281 53.55015625 -18.69726562 52.8515625 C-17.60837228 49.96004739 -16.64908639 47.0318121 -15.6953125 44.09375 C-14.92487345 41.77377622 -14.0928016 39.4821867 -13.25 37.1875 C-11.27820221 31.81055911 -9.38595552 26.40746994 -7.5 21 C-5.05112764 13.98059451 -2.56539926 6.97788598 0 0 Z " fill="#F5F5F5" transform="translate(285,205)"/>
<path d="M0 0 C5.61 0 11.22 0 17 0 C20.2372689 8.31190663 23.38601364 16.57483575 25.9296875 25.125 C26.26226562 26.23875 26.59484375 27.3525 26.9375 28.5 C27.38416016 30.03140625 27.38416016 30.03140625 27.83984375 31.59375 C28.74862017 34.26194206 29.73778389 36.71012566 30.90234375 39.265625 C33.1252945 44.16034692 34.8939393 49.16405174 36.625 54.25 C37.22034792 55.98472067 37.81667204 57.71910667 38.4140625 59.453125 C38.82446777 60.64905273 38.82446777 60.64905273 39.24316406 61.86914062 C39.84811136 63.57235999 40.51893131 65.25213104 41.2109375 66.921875 C42 69 42 69 42 72 C36.72 72 31.44 72 26 72 C22 60.375 22 60.375 22 57 C13.09 57 4.18 57 -5 57 C-5.33 58.98 -5.66 60.96 -6 63 C-6.89779584 66.04227192 -7.95551491 69.0027819 -9 72 C-14.28 72 -19.56 72 -25 72 C-24.15233905 66.9140343 -22.86848962 62.81514984 -20.9375 58.125 C-18.01212967 50.83294953 -15.43676379 43.46870771 -13 36 C-10.09187753 27.10390144 -6.92669959 18.36641778 -3.4453125 9.6796875 C-2.19321648 6.49191872 -1.08303344 3.24910031 0 0 Z " fill="#F7F7F7" transform="translate(294,296)"/>
<path d="M0 0 C16.17 0 32.34 0 49 0 C49 4.29 49 8.58 49 13 C37.78 13 26.56 13 15 13 C15 18.61 15 24.22 15 30 C24.57 30 34.14 30 44 30 C44 33.96 44 37.92 44 42 C34.43 42 24.86 42 15 42 C15 48.27 15 54.54 15 61 C26.55 61 38.1 61 50 61 C50 64.96 50 68.92 50 73 C49 74 49 74 47.01951599 74.12025452 C46.15125687 74.11803391 45.28299774 74.11581329 44.38842773 74.11352539 C43.3937146 74.11340454 42.39900146 74.11328369 41.37414551 74.11315918 C40.32126343 74.10804321 39.26838135 74.10292725 38.18359375 74.09765625 C37.22134888 74.09664917 36.259104 74.09564209 35.2677002 74.09460449 C31.65762142 74.0893546 28.04755957 74.07539348 24.4375 74.0625 C16.373125 74.041875 8.30875 74.02125 0 74 C0 49.58 0 25.16 0 0 Z " fill="#F4F4F3" transform="translate(407,295)"/>
<path d="M0 0 C4.95 0 9.9 0 15 0 C15.01458252 1.54381348 15.02916504 3.08762695 15.04418945 4.67822266 C15.1022319 10.41478449 15.17946538 16.15095626 15.26245117 21.88720703 C15.29567236 24.36826235 15.32371298 26.84939273 15.34643555 29.33056641 C15.3800322 32.90039001 15.43235283 36.46952745 15.48828125 40.0390625 C15.49467117 41.14553131 15.5010611 42.25200012 15.50764465 43.39199829 C15.63268691 49.96576634 16.16200214 54.72538709 20.625 59.875 C25.45631673 62.16351845 30.54780086 61.40763485 35.5625 60 C36.7690625 59.505 36.7690625 59.505 38 59 C38.144375 58.236875 38.28875 57.47375 38.4375 56.6875 C39 54 39 54 40 51 C40.11513832 49.32849013 40.17636784 47.6530037 40.20532227 45.9777832 C40.22526749 44.95695145 40.24521271 43.93611969 40.26576233 42.88435364 C40.28247482 41.78427475 40.29918732 40.68419586 40.31640625 39.55078125 C40.33718735 38.4230278 40.35796844 37.29527435 40.37937927 36.13334656 C40.44482847 32.5264604 40.50373844 28.91950071 40.5625 25.3125 C40.60568961 22.86913298 40.64930404 20.42577344 40.69335938 17.98242188 C40.8005052 11.98835684 40.90178591 5.99421776 41 0 C45.95 0 50.9 0 56 0 C56.04957737 7.40152011 56.08580384 14.80294271 56.10986328 22.20458984 C56.11989737 24.7205575 56.13352768 27.23651357 56.15087891 29.75244141 C56.17524097 33.37665678 56.18650931 37.00071744 56.1953125 40.625 C56.20563507 41.74302002 56.21595764 42.86104004 56.22659302 44.01293945 C56.22745177 50.0415847 55.76727047 55.22732414 54 61 C53.34 61 52.68 61 52 61 C51.86658203 61.87785156 51.86658203 61.87785156 51.73046875 62.7734375 C50.8083252 65.5842494 49.53928808 66.6993585 47.3125 68.625 C46.64863281 69.21539062 45.98476563 69.80578125 45.30078125 70.4140625 C37.76223911 75.61040903 27.76317241 74.79137869 19 74 C11.81021995 72.485353 6.98349416 68.05780071 3 62 C-0.58765307 55.51499054 -0.38980892 49.58344076 -0.29296875 42.28515625 C-0.28872391 41.07427841 -0.28447906 39.86340057 -0.28010559 38.61582947 C-0.26336989 34.76448943 -0.22572572 30.91368077 -0.1875 27.0625 C-0.17244662 24.44466904 -0.15875936 21.82682984 -0.14648438 19.20898438 C-0.11348287 12.80578616 -0.06173457 6.40298305 0 0 Z " fill="#F9F9F9" transform="translate(333,205)"/>
<path d="M0 0 C0 0.66 0 1.32 0 2 C0.556875 2.20625 1.11375 2.4125 1.6875 2.625 C6.97075033 5.76639209 9.45551329 10.39638673 11.51953125 15.97265625 C12 18 12 18 12 23 C7.05 23 2.1 23 -3 23 C-3.3403125 21.14375 -3.3403125 21.14375 -3.6875 19.25 C-4.7175386 15.06315244 -6.28732637 13.32042102 -10 11 C-13.91566224 9.04216888 -18.61181465 9.65295366 -22.75 10.6875 C-26.46985312 12.85741432 -28.5836279 15.66421803 -29.86328125 19.76953125 C-31.5046393 30.88794798 -32.3336686 43.74294499 -27 54 C-26.01 54.66 -25.02 55.32 -24 56 C-24 56.66 -24 57.32 -24 58 C-22.10489301 58.08160748 -20.20875496 58.13946459 -18.3125 58.1875 C-16.72888672 58.23970703 -16.72888672 58.23970703 -15.11328125 58.29296875 C-11.58505067 57.96095207 -9.81044759 57.12146661 -7 55 C-4.98808488 51.62285676 -3.95715777 48.82863109 -3 45 C2.28 45 7.56 45 13 45 C11.51364937 53.51273541 9.15981214 60.82728601 2.1875 66.375 C-6.27200715 72.04617798 -14.38858453 73.32632201 -24.48828125 71.56640625 C-32.81321618 69.25152797 -38.49003807 63.51997357 -42.89453125 56.28515625 C-46.50618873 48.81936253 -47.52317341 42.94587671 -47.4375 34.6875 C-47.42920166 33.6651123 -47.42090332 32.64272461 -47.41235352 31.58935547 C-47.15282429 20.03522528 -44.29485269 11.3109592 -36 3 C-26.13847668 -6.1261516 -11.64183682 -4.94976055 0 0 Z " fill="#F5F5F4" transform="translate(386,298)"/>
<path d="M0 0 C15.84 0 31.68 0 48 0 C48 4.29 48 8.58 48 13 C37.11 13 26.22 13 15 13 C15 18.94 15 24.88 15 31 C24.57 31 34.14 31 44 31 C44 34.96 44 38.92 44 43 C34.43 43 24.86 43 15 43 C15 52.9 15 62.8 15 73 C10.05 73 5.1 73 0 73 C0 48.91 0 24.82 0 0 Z " fill="#F7F7F6" transform="translate(145,205)"/>
<path d="M0 0 C19.14 0 38.28 0 58 0 C58 3.96 58 7.92 58 12 C50.74 12 43.48 12 36 12 C36 32.13 36 52.26 36 73 C31.05 73 26.1 73 21 73 C21 52.87 21 32.74 21 12 C14.07 12 7.14 12 0 12 C0 8.04 0 4.08 0 0 Z " fill="#F7F7F7" transform="translate(143,296)"/>
<path d="M0 0 C12.44444444 0 12.44444444 0 17 2 C17.66717041 2.27271729 18.33434082 2.54543457 19.02172852 2.82641602 C22.76714164 5.04833393 23.80429718 8.97661161 25 13 C25.55393614 16.87344466 25.60594982 20.65457172 25.5625 24.5625 C25.58634766 25.55185547 25.61019531 26.54121094 25.63476562 27.56054688 C25.6212944 34.32759298 24.33285592 38.75290231 20 44 C14.43941653 49.38681524 7.44111598 48 0 48 C0 32.16 0 16.32 0 0 Z " fill="#0C0C0A" transform="translate(416,218)"/>
<path d="M0 0 C2.536875 -0.061875 5.07375 -0.12375 7.6875 -0.1875 C8.47729248 -0.21481201 9.26708496 -0.24212402 10.08081055 -0.27026367 C14.62055024 -0.32364536 17.40766189 0.20521457 21 3 C23.3453706 5.91149453 23.96853279 7.7797295 24.5 11.5 C23.86732633 15.92871571 22.41619598 17.21937537 19 20 C15.20548348 22.52967768 12.18802503 22.22360092 7.8125 22.125 C3.9453125 22.063125 3.9453125 22.063125 0 22 C0 14.74 0 7.48 0 0 Z " fill="#161616" transform="translate(224,308)"/>
<path d="M0 0 C2.68125 -0.0825 5.3625 -0.165 8.125 -0.25 C8.95789551 -0.28641602 9.79079102 -0.32283203 10.64892578 -0.36035156 C15.84126169 -0.43716493 19.04947748 0.30995149 23 4 C24.08329159 7.72763415 23.7740622 11.21382622 23 15 C20.5625 18.125 20.5625 18.125 18 20 C17.67 20.33 17.34 20.66 17 21 C14.13530675 21.07330331 11.30106326 21.09217831 8.4375 21.0625 C4.2609375 21.0315625 4.2609375 21.0315625 0 21 C0 14.07 0 7.14 0 0 Z " fill="#121211" transform="translate(215,218)"/>
<path d="M0 0 C2.15183191 3.22774787 3.30236391 6.41537962 4.5 10.0625 C4.72067139 10.72773682 4.94134277 11.39297363 5.16870117 12.07836914 C6.87084154 17.33186531 8.07771037 22.55010673 9 28 C3.06 28 -2.88 28 -9 28 C-8.34717401 24.73587006 -7.76074397 22.05873051 -6.66015625 19.00390625 C-6.40169922 18.28009766 -6.14324219 17.55628906 -5.87695312 16.81054688 C-5.47379883 15.69776367 -5.47379883 15.69776367 -5.0625 14.5625 C-4.53207858 13.0848053 -4.00212208 11.60694362 -3.47265625 10.12890625 C-3.2214502 9.42910645 -2.97024414 8.72930664 -2.71142578 8.00830078 C-1.77013687 5.35111391 -0.87867213 2.67846431 0 0 Z " fill="#101010" transform="translate(302,313)"/>
<path d="M0 0 C2.23621557 2.23621557 2.73133735 3.67864029 3.7265625 6.6484375 C4.0359375 7.57140625 4.3453125 8.494375 4.6640625 9.4453125 C4.98117187 10.41210938 5.29828125 11.37890625 5.625 12.375 C5.94984375 13.3340625 6.2746875 14.293125 6.609375 15.28125 C6.91617187 16.20679688 7.22296875 17.13234375 7.5390625 18.0859375 C7.95986084 19.3551001 7.95986084 19.3551001 8.38916016 20.64990234 C9 23 9 23 9 27 C3.39 27 -2.22 27 -8 27 C-1.80898876 1.80898876 -1.80898876 1.80898876 0 0 Z " fill="#101010" transform="translate(293,223)"/>
<path d="M0 0 C2.06339685 2.06339685 2.56591822 3.18443836 3.5 5.875 C4.30817786 8.15521612 5.0965385 10.17859622 6.25 12.3125 C7 14 7 14 6 17 C3.0625 18.125 3.0625 18.125 0 19 C-0.66 19.33 -1.32 19.66 -2 20 C-2.33 20.99 -2.66 21.98 -3 23 C-8.61 23 -14.22 23 -20 23 C-20 22.67 -20 22.34 -20 22 C-14.72 22 -9.44 22 -4 22 C-4.66 19.69 -5.32 17.38 -6 15 C-4 13 -4 13 -1 12 C-1.20625 11.319375 -1.4125 10.63875 -1.625 9.9375 C-2.10063829 6.21166669 -1.17669149 3.53007446 0 0 Z " fill="#1F1F1E" transform="translate(340,346)"/>
<path d="M0 0 C1.32 0.66 2.64 1.32 4 2 C4 2.66 4 3.32 4 4 C-8.21 4 -20.42 4 -33 4 C-32.67 3.34 -32.34 2.68 -32 2 C-21.44 2 -10.88 2 0 2 C0 1.34 0 0.68 0 0 Z " fill="#070707" transform="translate(232,201)"/>
<path d="M0 0 C3.61703101 2.83071992 3.13119582 3.78717492 4 9 C-1.94 9 -7.88 9 -14 9 C-13.67 7.35 -13.34 5.7 -13 4 C-12.34 4 -11.68 4 -11 4 C-11 4.99 -11 5.98 -11 7 C-8.36 7 -5.72 7 -3 7 C-2.690625 6.21625 -2.38125 5.4325 -2.0625 4.625 C-1 2 -1 2 0 0 Z " fill="#2F2F2F" transform="translate(307,332)"/>
<path d="M0 0 C8.58 0 17.16 0 26 0 C25.67 1.32 25.34 2.64 25 4 C25 3.34 25 2.68 25 2 C19.06 1.67 13.12 1.34 7 1 C6.67 1.99 6.34 2.98 6 4 C4.824375 4.12375 4.824375 4.12375 3.625 4.25 C0.85250896 4.72806339 0.85250896 4.72806339 -0.3125 7.0625 C-0.539375 7.701875 -0.76625 8.34125 -1 9 C-2 6 -2 6 0 0 Z " fill="#050504" transform="translate(289,353)"/>
<path d="M0 0 C1.90389849 2.85584773 2.69462177 4.9311762 3.625 8.1875 C3.88539063 9.08855469 4.14578125 9.98960937 4.4140625 10.91796875 C4.60742188 11.60503906 4.80078125 12.29210937 5 13 C4.2575 12.814375 3.515 12.62875 2.75 12.4375 C0.05009037 12.00796892 -1.44631077 12.14877026 -4 13 C-3.52511102 11.01980257 -3.04497141 9.04086365 -2.5625 7.0625 C-2.29566406 5.96035156 -2.02882813 4.85820312 -1.75390625 3.72265625 C-1 1 -1 1 0 0 Z " fill="#1E1E1E" transform="translate(302,313)"/>
<path d="M0 0 C0.66 0.66 1.32 1.32 2 2 C2.66 1.34 3.32 0.68 4 0 C4.33 1.98 4.66 3.96 5 6 C-1.27 6 -7.54 6 -14 6 C-14 4.35 -14 2.7 -14 1 C-13.67 1.66 -13.34 2.32 -13 3 C-6.565 2.505 -6.565 2.505 0 2 C0 1.34 0 0.68 0 0 Z " fill="#050504" transform="translate(298,200)"/>
<path d="M0 0 C2.31 0 4.62 0 7 0 C6.67 0.66 6.34 1.32 6 2 C5.01 2 4.02 2 3 2 C3.66 3.32 4.32 4.64 5 6 C4.01 6.33 3.02 6.66 2 7 C1.67 10.63 1.34 14.26 1 18 C0.67 18 0.34 18 0 18 C0 12.06 0 6.12 0 0 Z " fill="#202020" transform="translate(160,218)"/>
<path d="M0 0 C-0.99 0.495 -0.99 0.495 -2 1 C-2.33 1.99 -2.66 2.98 -3 4 C-5.3125 4.625 -5.3125 4.625 -8 5 C-8.99 4.34 -9.98 3.68 -11 3 C-12.98 3.99 -12.98 3.99 -15 5 C-12.5879397 1.26130653 -12.5879397 1.26130653 -10.3125 0.25 C-6.86266368 -0.12295528 -3.46947836 -0.05782464 0 0 Z " fill="#1E1E1E" transform="translate(374,307)"/>
<path d="M0 0 C1.32 0.66 2.64 1.32 4 2 C4 2.66 4 3.32 4 4 C-9.86 3.505 -9.86 3.505 -24 3 C-24 2.67 -24 2.34 -24 2 C-16.08 2 -8.16 2 0 2 C0 1.34 0 0.68 0 0 Z " fill="#010101" transform="translate(232,201)"/>
<path d="M0 0 C2.5 1.1875 2.5 1.1875 5 3 C5.3125 5.6875 5.3125 5.6875 5 8 C4.67 7.01 4.34 6.02 4 5 C3.34 5 2.68 5 2 5 C1.67 5.99 1.34 6.98 1 8 C-1 6.6875 -1 6.6875 -3 5 C-3 4.01 -3 3.02 -3 2 C-2.01 2 -1.02 2 0 2 C0 1.34 0 0.68 0 0 Z " fill="#0A0A0A" transform="translate(302,323)"/>
<path d="M0 0 C4.95 0 9.9 0 15 0 C15 0.66 15 1.32 15 2 C9.94997778 3.03590199 5.12583611 3.10251672 0 3 C0 2.01 0 1.02 0 0 Z M-2 3 C0 4 0 4 0 4 Z " fill="#030302" transform="translate(384,321)"/>
<path d="M0 0 C0.66 0 1.32 0 2 0 C1.54548816 1.73017508 1.08621143 3.45909877 0.625 5.1875 C0.36976563 6.15042969 0.11453125 7.11335938 -0.1484375 8.10546875 C-0.94766296 10.82210207 -1.9031362 13.39137175 -3 16 C-3.33 16 -3.66 16 -4 16 C-3.6083965 10.04492601 -2.62875405 5.37180176 0 0 Z " fill="#1D1D1B" transform="translate(279,333)"/>
<path d="M0 0 C1.33333333 2.66666667 2.66666667 5.33333333 4 8 C2.35 8.66 0.7 9.32 -1 10 C-2.15837626 5.94568308 -1.83691257 3.78187881 0 0 Z " fill="#151515" transform="translate(333,260)"/>
<path d="M0 0 C-0.33 0.66 -0.66 1.32 -1 2 C-5.62 2 -10.24 2 -15 2 C-15 1.34 -15 0.68 -15 0 C-4.44191344 -1.33257403 -4.44191344 -1.33257403 0 0 Z " fill="#020202" transform="translate(231,237)"/>
<path d="M0 0 C1.125 3.75 1.125 3.75 0 6 C0.66 6 1.32 6 2 6 C2.33 7.98 2.66 9.96 3 12 C2.34 11.67 1.68 11.34 1 11 C0.34 11.66 -0.32 12.32 -1 13 C-1.66 11.35 -2.32 9.7 -3 8 C-2.34 8 -1.68 8 -1 8 C-0.67 5.36 -0.34 2.72 0 0 Z " fill="#2A2A29" transform="translate(388,258)"/>
<path d="M0 0 C2.64 0.33 5.28 0.66 8 1 C8.66 2.65 9.32 4.3 10 6 C4.06 4.515 4.06 4.515 -2 3 C-1.34 2.01 -0.68 1.02 0 0 Z " fill="#191918" transform="translate(234,203)"/>
<path d="M0 0 C2.04219706 1.69179328 2.91793306 2.63727666 3.51171875 5.26171875 C3.56972656 6.06222656 3.62773437 6.86273438 3.6875 7.6875 C3.75324219 8.49574219 3.81898438 9.30398438 3.88671875 10.13671875 C3.92410156 10.75160156 3.96148437 11.36648438 4 12 C2.02 11.34 0.04 10.68 -2 10 C-1.01 9.34 -0.02 8.68 1 8 C0.67 5.36 0.34 2.72 0 0 Z " fill="#2A2A29" transform="translate(380,312)"/>
<path d="M0 0 C1.65 0 3.3 0 5 0 C5.33 0.66 5.66 1.32 6 2 C9.02934491 2.65772428 9.02934491 2.65772428 12 3 C12 3.33 12 3.66 12 4 C10.37509046 4.02698189 8.75005367 4.04638757 7.125 4.0625 C5.76761719 4.07990234 5.76761719 4.07990234 4.3828125 4.09765625 C2 4 2 4 0 3 C0 2.01 0 1.02 0 0 Z " fill="#323232" transform="translate(362,353)"/>
<path d="M0 0 C2 3.75 2 3.75 2 6 C-0.31 5.67 -2.62 5.34 -5 5 C-4.67 4.01 -4.34 3.02 -4 2 C-3.01 2 -2.02 2 -1 2 C-0.67 1.34 -0.34 0.68 0 0 Z " fill="#171716" transform="translate(318,362)"/>
<path d="M0 0 C0.33 0 0.66 0 1 0 C1 4.62 1 9.24 1 14 C-1.64751415 11.35248585 -1.71520084 9.70238904 -2 6 C-1.0625 2.625 -1.0625 2.625 0 0 Z " fill="#151513" transform="translate(350,248)"/>
<path d="M0 0 C0.125 2.875 0.125 2.875 0 6 C-0.66 6.66 -1.32 7.32 -2 8 C-3.4606285 5.35261084 -4 4.10551666 -4 1 C-2 0 -2 0 0 0 Z " fill="#1E1E1E" transform="translate(255,336)"/>
<path d="M0 0 C1.875 0.125 1.875 0.125 4 1 C5.25 4.0625 5.25 4.0625 6 7 C3.5625 6.3125 3.5625 6.3125 1 5 C0.1875 2.375 0.1875 2.375 0 0 Z " fill="#1B1B1B" transform="translate(225,252)"/>
<path d="M0 0 C1.90401138 1.90401138 2.93520439 3.33425686 3.19921875 6.046875 C3.1886578 8.03233273 3.09915043 10.0169914 3 12 C2.34 11.67 1.68 11.34 1 11 C1 8.69 1 6.38 1 4 C0.34 4 -0.32 4 -1 4 C-0.67 2.68 -0.34 1.36 0 0 Z " fill="#060605" transform="translate(324,326)"/>
<path d="M0 0 C6.52307692 0.49230769 6.52307692 0.49230769 8.9375 3.0625 C9.288125 3.701875 9.63875 4.34125 10 5 C9.67 5.66 9.34 6.32 9 7 C8.67 6.01 8.34 5.02 8 4 C6.01751285 3.28293018 4.01584651 2.61709587 2 2 C1.34 1.34 0.68 0.68 0 0 Z " fill="#2C2C2B" transform="translate(248,297)"/>
<path d="M0 0 C0.33 0 0.66 0 1 0 C1.66 3.63 2.32 7.26 3 11 C2.01 11.33 1.02 11.66 0 12 C0 8.04 0 4.08 0 0 Z M3 8 C3.99 8.495 3.99 8.495 5 9 C4.01 9.495 4.01 9.495 3 10 C3 9.34 3 8.68 3 8 Z " fill="#020202" transform="translate(161,224)"/>
<path d="M0 0 C0.99 0.33 1.98 0.66 3 1 C4.1875 4.5625 4.1875 4.5625 5 8 C4.34 8.66 3.68 9.32 3 10 C2.01 6.7 1.02 3.4 0 0 Z " fill="#262626" transform="translate(306,218)"/>
<path d="M0 0 C2.475 0.495 2.475 0.495 5 1 C5 3.31 5 5.62 5 8 C2.2175651 6.60878255 1.44789935 4.69835788 0 2 C0 1.34 0 0.68 0 0 Z " fill="#1C1C1B" transform="translate(248,211)"/>
<path d="M0 0 C0.66 0.33 1.32 0.66 2 1 C-0.64 2.98 -3.28 4.96 -6 7 C-6 6.34 -6 5.68 -6 5 C-6.66 4.67 -7.32 4.34 -8 4 C-6.71349294 3.30289269 -5.42059335 2.61757124 -4.125 1.9375 C-3.40570313 1.55464844 -2.68640625 1.17179687 -1.9453125 0.77734375 C-1.30335938 0.52082031 -0.66140625 0.26429688 0 0 Z " fill="#222222" transform="translate(387,364)"/>
<path d="M0 0 C2.5654594 2.5654594 2.54046087 4.47686668 3 8 C2.01 7.67 1.02 7.34 0 7 C-0.38133299 5.0085944 -0.71325582 3.00720923 -1 1 C-0.67 0.67 -0.34 0.34 0 0 Z " fill="#232321" transform="translate(245,360)"/>
<path d="M0 0 C0.66 0.66 1.32 1.32 2 2 C1.625 5.625 1.625 5.625 1 9 C0.34 8.67 -0.32 8.34 -1 8 C-1.625 4.9375 -1.625 4.9375 -2 2 C-1.34 2 -0.68 2 0 2 C0 1.34 0 0.68 0 0 Z " fill="#060605" transform="translate(317,304)"/>
<path d="M0 0 C1.26237731 2.52475462 1.09856404 4.31200466 1.0625 7.125 C1.05347656 8.03507812 1.04445313 8.94515625 1.03515625 9.8828125 C1.02355469 10.58148438 1.01195312 11.28015625 1 12 C0.01 12.33 -0.98 12.66 -2 13 C-1.85966889 11.02043559 -1.7125877 9.04134859 -1.5625 7.0625 C-1.48128906 5.96035156 -1.40007812 4.85820312 -1.31640625 3.72265625 C-1 1 -1 1 0 0 Z " fill="#040402" transform="translate(453,326)"/>
<path d="M0 0 C0.33 0 0.66 0 1 0 C1 2.31 1 4.62 1 7 C0.01 7 -0.98 7 -2 7 C-2.66 6.01 -3.32 5.02 -4 4 C-3.34 3.67 -2.68 3.34 -2 3 C-1.34 3.33 -0.68 3.66 0 4 C0 2.68 0 1.36 0 0 Z " fill="#343434" transform="translate(247,316)"/>
<path d="M0 0 C2.375 0.1875 2.375 0.1875 5 1 C6.3125 3.5625 6.3125 3.5625 7 6 C6.01 6 5.02 6 4 6 C4 5.01 4 4.02 4 3 C2.68 2.67 1.36 2.34 0 2 C0 1.34 0 0.68 0 0 Z " fill="#292929" transform="translate(432,221)"/>
</svg>
